<svg xmlns="http://www.w3.org/2000/svg" viewBox="0 0 246.6 227.16">
  <path fill="#002d62" d="m39.96 95.28 6.96-3.36-29.52-60.6 6.96-3.48L21 21 0 31.2l3.36 6.96 6.96-3.48Zm15.48-7.56 7.44-2.4-10.44-32.04 7.44-2.4 10.44 32.04 7.44-2.4L54.6 9l-7.44 2.4L57.6 43.44l-7.44 2.4L39.6 13.8l-7.44 2.4ZM94.56 1.44l-7.68 1.2 10.56 66.48-7.68 1.2L79.2 3.84l-7.68 1.2L81.6 68.28a11.66 11.66 0 0 0 23.04-3.6ZM111 75.12l7.8.12.36-21.72c.24-6.6-.24-20.04-.6-26.28h.24c2.04 16.8 5.76 32.4 8.16 48.24l7.44.12L135.72.48l-7.8-.24-.36 21.84c-.24 6.6.24 19.92.6 26.28h-.24c-2.04-16.8-5.76-32.4-8.16-48.24L112.32 0Zm29.16.48 15.36 2.4a7.67 7.67 0 0 0 8.88-6.36l9.36-58.8a7.96 7.96 0 0 0-6.48-9l-15.48-2.4Zm18.24-65.16 7.68 1.2-9.36 58.8-7.68-1.2Zm54.72 6-14.76-4.8a7.6 7.6 0 0 0-9.84 5.04L170.16 73.2a7.6 7.6 0 0 0 5.04 9.84l14.76 4.8 2.4-7.44-14.88-4.8 8.04-24.6 11.04 3.6 2.4-7.32-11.04-3.6 8.04-24.6 14.76 4.8Zm-19.8 72.96 33-67.68 14.04 6.84a7.7 7.7 0 0 1 3.6 10.44l-12.12 24.96c-1.56 3.24-4.32 4.56-7.32 3.12l-8.4 33.36-6.96-3.36 8.28-33.6-2.28-1.08-14.76 30.36Zm36.6-57.12-11.4 23.28 7.08 3.48 11.4-23.4Z"/>
  <path fill="#007ac1" d="M13.8 227.16a366 366 0 0 1 48.48-36.12L72.36 186c1.32-.6 4.08-1.92 7.44-3.6 2.4 2.64 4.68 5.16 7.2 7.56a1157 1157 0 0 0-73.2 37.2m182.28-91.08a368 368 0 0 1 50.52-7.68 1028 1028 0 0 0-55.2 18.48c1.68-3.48 3.12-7.08 4.68-10.8"/>
  <path fill="#f05133" d="M1.2 176.64a380 380 0 0 1 55.32-28.68c.6 1.32 1.32 2.64 2.04 3.96-1.08 2.16-2.16 4.44-3.24 6.6A1143 1143 0 0 0 1.2 176.64m201.96-61.8a398 398 0 0 1 43.32.6c-15 2.16-30.24 4.56-45.72 7.44.84-2.64 1.68-5.28 2.4-8.04"/>
  <path fill="#fff" d="M123.84 90.96c28.2 0 50.28 6.6 75.36 19.08-12.24 45.96-34.68 77.04-75.36 102.12-15.24-9.48-28.32-20.04-39.12-32.04 4.8-2.28 10.2-4.92 15-7.08 2.04.12 3.84.24 5.64.24a8.6 8.6 0 0 1-2.4 6c.84.96 1.56 1.8 2.4 2.64 2.16-1.92 3.48-4.68 3.6-8.64a66 66 0 0 0 14.16-1.56c-.12 7.32-1.2 12.6-3.24 14.76a.12.12 0 0 0-.12.12 13 13 0 0 1-1.44 1.32c2.04-.36 4.08-.84 5.88-1.32 2.52-5.16 2.52-14.16 2.52-15.72 4.68-1.2 8.76-2.4 12.48-3.6.12 4.2 1.92 8.16 5.16 9.72 1.44-1.08 2.76-2.16 4.2-3.24-.84.12-5.88.48-5.76-7.68 10.8-4.2 17.88-9 24.12-16.44a63 63 0 0 0 3.84-11.64c-7.44 11.76-14.16 18.6-27.6 24a55 55 0 0 1 2.16-8.52c3.96-1.68 8.04-3.6 10.44-4.68l5.88-6.12c1.56-5.64 2.88-11.28 4.32-17.04l-4.56 1.44 5.4-5.64c1.2-4.44 2.28-8.88 3.36-13.32-2.64.36-5.4.84-8.04 1.2.48-2.28.72-4.44.96-6.6-1.32-.24-2.64-.72-3.96-.84a62 62 0 0 1-1.44 8.16l-.36.12a16 16 0 0 0-7.32 3.12l.72-2.16c-4.32.72-8.64 1.56-12.96 2.4l-4.32 4.56.12-.48L135 114c-4.2.96-8.52 1.8-12.84 2.76-.84-5.76-1.8-10.92-2.52-15.12l-3.6.36c.72 4.32 1.68 9.6 2.64 15.48l-3 .72-3.84 4.08c-2.64-2.88-8.16-1.08-11.64-.24-3.72.96-7.44 2.04-11.16 3a26 26 0 0 0-3.24.96 95 95 0 0 1-7.68-12.6l-.36-.84c-1.08.48-2.16.84-3.36 1.44l.48.96a100 100 0 0 0 7.32 12.48 32 32 0 0 0-10.92 7.8s-5.28 5.4-5.88 6.12a33 33 0 0 0-3.48 4.92 180 180 0 0 1-13.2-36.24c24.84-12.48 46.92-19.08 75.12-19.08m2.76 69.72c2.64-1.08 5.16-2.28 7.8-3.36l1.2-1.32a9 9 0 0 0 1.8.12 18 18 0 0 0 3.6-.96 53 53 0 0 0-1.68 8.28c-3.6 1.32-7.8 2.64-12.48 3.84-.12-2.28-.12-4.32-.24-6.6m-18 8.16 2.52-1.2 6.24-5.04 1.44-3.72c.84 1.8 1.32 2.52 2.28 4.32l2.04-.96V168a62 62 0 0 1-14.4 1.68Z"/>
  <path fill="#f05133" d="M139.08 100.44a142 142 0 0 1 17.64.96 123 123 0 0 1 13.08 3.36 65 65 0 0 1 2.52 18.24 70 70 0 0 1-1.68 15.12c-7.44 11.76-14.28 18.48-27.6 23.88a55 55 0 0 1 2.16-8.52c3.96-1.68 7.92-3.6 10.44-4.56l5.88-6.12c1.44-5.76 2.88-11.4 4.32-17.04l-4.56 1.44 5.4-5.64c1.08-4.44 2.28-8.88 3.36-13.32-2.64.36-5.4.84-8.04 1.2.36-2.28.72-4.44.96-6.6a48 48 0 0 0-3.96-.96 64 64 0 0 1-1.44 8.28l-.36.12a14 14 0 0 0-7.44 3.12l.84-2.16c-4.44.72-8.64 1.56-13.08 2.4l-4.2 4.44.12-.36 1.44-3.6c-4.32.96-8.52 1.8-12.84 2.76-.84-5.88-1.8-11.04-2.52-15.24a148 148 0 0 1 19.56-1.2m27.72 49.32a67 67 0 0 1-18.24 24.12c-.84.12-6 .48-5.88-7.68 10.8-4.2 17.88-9.12 24.12-16.44m-22.56 27.36a64 64 0 0 1-20.04 9.6c2.4-5.16 2.52-14.16 2.52-15.72 4.56-1.2 8.64-2.4 12.48-3.6.12 4.2 1.8 8.28 5.04 9.72m-25.92 10.92c-2.04.36-4.2.6-6.24.84a361 361 0 0 1-6.72-6.96c2.16-1.92 3.48-4.68 3.6-8.64a66 66 0 0 0 14.16-1.56c-.12 7.32-1.2 12.6-3.24 14.76a.12.12 0 0 0-.12.12zm-15.36-8.76c-1.56-1.8-3.12-3.72-4.56-5.64l1.32-.6c2.04.12 3.84.24 5.64.24a9.2 9.2 0 0 1-2.4 6M74.4 132a161 161 0 0 1-5.4-15.72 67 67 0 0 1 5.16-2.28l.36.96a101 101 0 0 0 7.44 12.48A30 30 0 0 0 74.4 132m3-19.44A160 160 0 0 1 115.8 102c.72 4.32 1.68 9.6 2.52 15.48l-3 .72-3.72 4.08c-2.76-2.88-8.28-1.08-11.64-.24-3.72.96-7.44 2.04-11.16 3a26 26 0 0 0-3.24.96A95 95 0 0 1 78 113.4Zm49.2 48.12c2.64-1.08 5.16-2.28 7.8-3.36l1.2-1.32a9 9 0 0 0 1.8.12 20 20 0 0 0 3.6-.96 42 42 0 0 0-1.68 8.28c-3.72 1.32-7.8 2.64-12.6 3.84 0-2.28 0-4.32-.12-6.6m-18 8.16 2.52-1.2 6.24-5.04 1.44-3.72c.84 1.8 1.32 2.52 2.28 4.32l2.04-.84v5.76a69 69 0 0 1-14.4 1.68Z"/>
  <path fill="#fdbb30" d="M125.16 204.48a157 157 0 0 1-31.92-28.44l5.16-2.4c1.56 1.92 3.12 3.84 4.68 5.64a25 25 0 0 0 2.4 2.64 154 154 0 0 0 22.68 20.52 33 33 0 0 1-3 2.04m-56.64-66.84a171 171 0 0 1-8.76-23.88 163 163 0 0 1 65.52-15.84 162 162 0 0 1 31.44 3.36 172 172 0 0 0-17.64-.96 151 151 0 0 0-19.68 1.2c-1.2.12-2.4.36-3.6.48a160 160 0 0 0-38.4 10.44c-1.08.48-2.28.96-3.36 1.44-1.68.72-3.36 1.56-5.04 2.4A142 142 0 0 0 74.28 132a80 80 0 0 0-3.36 3.12Z"/>
  <path fill="#002d62" d="M42.6 107.28c27-13.8 50.64-21.48 81.36-21.48 30.6 0 54.36 7.68 81.36 21.48-12.6 50.52-36.6 84.12-81.48 111-16.92-10.2-31.68-22.08-43.92-35.88-3.36 1.68-6.12 3-7.56 3.72-4.2 2.16-8.4 4.2-12.6 6.36-4.8 2.4-10.08 6.12-15.6 4.68-6-2.64-2.04-9.96-.24-14.04 4.68-10.44 9.6-20.88 14.64-31.2A156 156 0 0 1 44.4 114.6Zm81.24-16.32c-28.2 0-50.28 6.6-75.36 19.08a174 174 0 0 0 13.08 36.12 34 34 0 0 1 3.6-4.92c.6-.6 5.76-6.12 5.76-6.12a33 33 0 0 1 11.04-7.8 93 93 0 0 1-7.44-12.48l-.36-.96c1.08-.48 2.16-.96 3.36-1.44l.36.84A96 96 0 0 0 85.44 126a113 113 0 0 1 3.36-1.08c3.72-.96 7.32-1.92 11.16-2.88 3.36-.96 8.88-2.76 11.52.12l3.84-4.08 3-.6c-.96-6-1.8-11.28-2.64-15.48 1.2-.12 2.4-.36 3.6-.48.72 4.2 1.68 9.48 2.52 15.12 4.32-.84 8.52-1.8 12.84-2.64l-1.44 3.6-.12.36 4.32-4.56c4.32-.72 8.52-1.56 12.96-2.4l-.72 2.28a15.4 15.4 0 0 1 7.32-3.24h.36a66 66 0 0 0 1.56-8.28c1.32.24 2.64.6 3.84.84a40 40 0 0 1-.96 6.6c2.76-.36 5.4-.72 8.16-1.2-1.2 4.44-2.28 9-3.36 13.44l-5.4 5.64 4.56-1.44c-1.56 5.64-3 11.28-4.32 17.04l-5.88 6.12c-2.52 1.08-6.6 3-10.44 4.56a59 59 0 0 0-2.16 8.52c13.32-5.4 20.16-12.24 27.6-23.88a67 67 0 0 1-3.96 11.64c-6.24 7.32-13.2 12.24-24.12 16.32-.12 8.28 5.16 7.92 5.88 7.68a29 29 0 0 1-4.32 3.24c-3.24-1.44-4.92-5.52-5.04-9.72-3.72 1.32-7.8 2.4-12.48 3.6-.12 1.56-.12 10.56-2.52 15.72a58 58 0 0 1-5.88 1.32 14 14 0 0 0 1.32-1.32l.12-.12c2.16-2.16 3.12-7.44 3.36-14.76a76 76 0 0 1-14.16 1.68c-.12 3.96-1.44 6.72-3.6 8.52-.84-.84-1.56-1.68-2.4-2.52a9.4 9.4 0 0 0 2.28-6c-1.68-.12-3.6-.24-5.52-.36-4.8 2.28-10.32 4.92-15.12 7.08a177 177 0 0 0 39.24 32.04c40.68-25.08 63-56.04 75.24-102.12-24.72-12.36-46.8-18.96-75-18.96m2.76 69.72c.12 2.28.12 4.32.12 6.48 4.8-1.2 8.88-2.4 12.6-3.72a45 45 0 0 1 1.68-8.4 20 20 0 0 1-3.6.96 5 5 0 0 1-1.8 0l-1.2 1.2c-2.64 1.2-5.16 2.4-7.8 3.48m-18 8.16.12.84a62 62 0 0 0 14.4-1.68v-5.76l-2.04.96-2.28-4.32-1.44 3.72-6.24 5.04Z"/>
  <path fill="#fff" d="M89.16 127.08c-6.36 1.8-12 4.44-16.56 9.48a47 47 0 0 0-6.24 9.84 1222 1222 0 0 0-14.64 31.32c-1.2 2.76-4.92 9.36-.96 11.16 4.44 1.08 9.96-2.64 13.8-4.56 4.2-2.16 8.52-4.32 12.72-6.36 7.2-3.6 13.68-7.92 18.12-14.88a94 94 0 0 0 4.32-9.36c2.76-6.84 5.52-13.56 8.4-20.28 1.08-2.64 3-5.76 2.4-8.52-1.2-3.72-7.56-1.44-10.2-.72zm-8.04 38.76c-3.36 1.56-6.6 3-9.96 4.56q7.2-16.74 15.12-33.48c2.88-.84 5.88-1.92 8.88-2.76Q87.78 150 81.12 165.84m57.48-50.4c-4.68 6.12-9.24 12.24-13.8 18.36 2.16-5.52 4.32-11.16 6.48-16.8-4.8.96-9.72 2.04-14.4 3.12a192 192 0 0 0-3.72 8.76 28 28 0 0 1 3-.84c-3.72 9.12-7.44 18.24-11.04 27.48-1.56 3.72-3 7.56-4.44 11.28 4.8-2.28 9.72-4.56 14.52-6.72a1112 1112 0 0 1 6.6-18.24c2.04 4.2 4.08 8.28 6.12 12.36 3.12-1.32 6.24-2.76 9.36-4.08l-5.76-12.96c3.48-5.28 6.96-10.56 10.44-15.72.96-.24 2.04-.36 3-.6.84-2.28 1.56-4.56 2.28-6.84zm18.72-3.12a13 13 0 0 0-6.96 3.24 15.5 15.5 0 0 0-3.12 5.88c-2.04 6.48-4.08 12.96-6.24 19.44-.84 2.52-2.16 7.2 1.92 6.96a17 17 0 0 0 4.08-1.44c4.2-1.8 8.4-3.48 12.6-5.16.96-4.08 2.04-8.16 3.12-12.24-2.16.6-4.32 1.32-6.6 2.04a99 99 0 0 0-1.56 5.64c-1.56.48-3.12 1.08-4.56 1.56 1.92-6.6 3.72-13.08 5.76-19.68 1.32-.36 2.64-.6 3.96-.96a30 30 0 0 1-.96 3.48l6-1.44a982 982 0 0 0 2.16-8.88c-3.12.48-6.36 1.08-9.6 1.56"/>
  <path fill="#007ac1" d="M174.84 106.2c1.92.72 3.84 1.32 5.76 2.04 4.56 1.8 8.64 3.48 12.12 5.16a161.4 161.4 0 0 1-62.16 87.48l-2.4 1.68A162 162 0 0 1 114 190.68l4.2-.6a67.8 67.8 0 0 0 55.56-77.76l-.36-1.44-.12-.48-.12-.12-.48-1.68-.12-.24-.12-.48-.12-.12v-.24a10 10 0 0 0-.6-2.04 31 31 0 0 1 3.12.72m.36.48c1.8.6 3.72 1.32 5.52 1.92-1.8-.6-3.72-1.32-5.52-1.92"/>
</svg>
